<svg width="169" height="24" viewBox="0 0 169 24" fill="none" xmlns="http://www.w3.org/2000/svg">
<path d="M168.849 0V24H162.204V0H168.849Z" fill="white"/>
<path d="M147.57 14.6129L143.215 4.83871L138.989 14.6129H147.57ZM151.763 24L149.795 19.5484H136.828L134.892 24H128.215L138.86 0H147.763L158.892 24H151.763Z" fill="white"/>
<path d="M115.851 11.7097H126.463V16.9678H115.851V11.7097Z" fill="white"/>
<path d="M98.9729 24V5.48387H89.6826V0H114.876V5.48387H105.586V24H98.9729Z" fill="white"/>
<path d="M64.1377 0H86.0087V5.32258H70.7506V9.6129H85.557V15.0968H70.7506V24H64.1377V0Z" fill="white"/>
<path d="M39.1237 5.29032V10.3871H48.3817C51.0914 10.3871 51.8334 9.22581 51.8334 7.83871V7.77419C51.8334 6.41936 51.0914 5.29032 48.3817 5.29032H39.1237ZM53.7366 12.4516C56.9946 13.1935 58.9624 15.1613 58.9624 18.6774V21.1613C58.9624 22.9677 59.1559 23.4516 59.3495 23.8387V24H52.4785C52.3817 23.8387 52.2527 23.3871 52.2527 22.3226V20.3548C52.2527 17.2581 51.1237 15.8387 47.7688 15.8387H39.1237V24H32.4785V0H48.6398C57.7688 0 58.8011 3.80645 58.8011 6.41936V6.74194C58.8011 9.74194 56.7366 11.7742 53.7366 12.4516Z" fill="white"/>
<path d="M0 24V0H12.2903C24.8065 0 27.6774 6.29032 27.6774 11.1613V12.129C27.6774 17.1613 25.4839 24 12.3226 24H0ZM6.64516 5.32258V18.6452H12C20.0645 18.6452 20.7742 14.7097 20.7742 12V11.8065C20.7742 9.12903 20 5.32258 12 5.32258H6.64516Z" fill="white"/>
</svg>
